<svg width="122" height="80" viewBox="0 0 122 80" fill="none" xmlns="http://www.w3.org/2000/svg">
<path d="M51.251 76.9538H102.714C103.058 76.9538 103.413 76.9537 103.748 76.9903V76.9538C112.152 76.9538 118.992 70.1169 118.992 61.7103C118.992 53.3037 112.152 46.4667 103.748 46.4667C102.553 46.4667 101.319 46.6218 100.07 46.9289C99.6646 47.0303 99.2306 46.9571 98.8811 46.7233C98.5317 46.4894 98.2949 46.1259 98.2301 45.7116C96.5279 34.8588 87.3237 26.9875 76.3441 26.9875C64.1104 26.9875 54.1594 36.9386 54.1594 49.1723C54.1594 49.7754 54.2018 50.3672 54.2496 50.9562C54.2863 51.4015 54.1229 51.8383 53.8043 52.1483C53.483 52.4639 53.0406 52.6133 52.6009 52.5654C52.1557 52.5203 51.7076 52.4894 51.251 52.4894C44.5071 52.4894 39.0201 57.9764 39.0201 64.7203C39.0201 71.467 44.5071 76.9541 51.251 76.9541V76.9538ZM51.1694 49.4965C51.1672 49.3894 51.1672 49.2796 51.1672 49.1724C51.1672 35.2872 62.4624 23.9947 76.3448 23.9947C88.2826 23.9947 98.3717 32.1928 100.9 43.7079C101.861 43.5501 102.813 43.474 103.749 43.474C113.804 43.474 121.985 51.6552 121.985 61.7104C121.985 71.7657 113.804 79.9469 103.74 79.9469H90.137H51.2517C42.8564 79.9469 36.0279 73.1185 36.0279 64.7203C36.0279 56.3559 42.8113 49.5416 51.17 49.4965" fill="white"/>
<path d="M28.0584 72.0214C18.6894 69.8195 10.5684 64.0469 5.50058 55.8651C-5.0425 38.8437 0.248258 16.4145 17.2687 5.87124C34.29 -4.67183 56.6657 0.568556 67.2088 17.5897C68.7217 20.0322 65.2974 21.1425 64.2491 19.4501C54.7105 4.05053 34.4784 -0.654278 19.0788 8.88441C3.67917 18.423 -1.02886 38.551 8.51035 53.9508C13.086 61.338 20.378 66.6276 28.8371 68.6157C30.95 69.1123 30.5562 72.6084 28.0575 72.0212L28.0584 72.0214Z" fill="white"/>
</svg>
