<svg width="125" height="125" viewBox="0 0 125 125" fill="none" xmlns="http://www.w3.org/2000/svg">
<path d="M42.6074 72.7628H101.878C102.272 72.7628 102.683 72.7628 103.068 72.8027V72.7628C112.748 72.7628 120.626 64.942 120.626 55.3287C120.626 45.7121 112.748 37.8914 103.068 37.8914C101.694 37.8914 100.266 38.0706 98.8325 38.4224C98.3645 38.5385 97.8666 38.4524 97.4622 38.1866C97.0611 37.921 96.7869 37.4995 96.7134 37.0282C94.7546 24.6165 84.1487 15.6107 71.5072 15.6107C57.4183 15.6107 45.9533 26.9934 45.9533 40.9884C45.9533 41.6755 46.0068 42.3559 46.0637 43.0265C46.1004 43.5377 45.9132 44.039 45.5456 44.3941C45.1813 44.7493 44.6665 44.922 44.1618 44.8689C43.6504 44.8158 43.1323 44.7825 42.6075 44.7825C34.8394 44.7825 28.5186 51.0597 28.5186 58.7709C28.5186 66.4855 34.8394 72.7626 42.6075 72.7626L42.6074 72.7628ZM42.5107 41.3601C42.5107 41.2339 42.508 41.1114 42.508 40.9884C42.508 25.1079 55.5206 12.1883 71.5081 12.1883C85.256 12.1883 96.8782 21.566 99.7896 34.7378C100.893 34.5585 101.992 34.4654 103.068 34.4654C114.65 34.4654 124.073 43.8265 124.073 55.3286C124.073 66.8307 114.651 76.1883 103.059 76.1883H87.3919H42.6083C32.9383 76.1883 25.0732 68.3743 25.0732 58.7709C25.0732 49.2008 32.8848 41.4099 42.5114 41.3601" fill="white"/>
<path d="M21.1029 22.8522C22.1839 22.8522 23.2816 22.9432 24.3859 23.1257C27.3041 9.73067 38.9368 0.188293 52.7012 0.188293C58.6949 0.188293 64.4477 2.01847 69.3404 5.47612C70.1168 6.02989 70.3075 7.11384 69.762 7.90059C69.2131 8.69072 68.1389 8.87982 67.3558 8.32943C63.0488 5.28035 57.9821 3.6696 52.7012 3.6696C40.0445 3.6696 29.4258 12.8337 27.4648 25.4555C27.3876 25.9418 27.1134 26.3672 26.7118 26.6373C26.3135 26.9075 25.8182 26.9953 25.343 26.8772C23.904 26.5159 22.4817 26.3336 21.1029 26.3336C11.4113 26.3336 3.52341 34.2923 3.52341 44.0709C3.52341 53.1912 10.2969 60.7751 19.2757 61.7104C20.2228 61.8117 20.9122 62.6694 20.8152 63.625C20.7215 64.5198 19.9718 65.1883 19.0983 65.1883C19.0416 65.1883 18.9779 65.1857 18.9211 65.1776C8.1753 64.0565 0.0732422 54.9835 0.0732422 44.0703C0.0732422 32.3703 9.50724 22.8517 21.1031 22.8517" fill="white"/>
<path d="M41.5745 90.1883C40.5594 90.1907 39.7401 91.01 39.7376 92.0251V94.8526H36.9102C35.8976 94.8526 35.0757 95.6745 35.0732 96.6896C35.0757 97.7046 35.8976 98.5263 36.9102 98.5263H39.7376L39.7352 101.352C39.7352 102.364 40.557 103.186 41.572 103.188C42.0808 103.188 42.543 102.98 42.8732 102.65C43.2059 102.318 43.4113 101.858 43.4089 101.352L43.4113 98.5263L46.2364 98.524C46.7451 98.524 47.2025 98.3208 47.5351 97.9882C47.8678 97.6556 48.0732 97.1958 48.0732 96.687C48.0708 95.672 47.249 94.8502 46.2364 94.8502L43.4113 94.8526V92.0251C43.4113 91.0125 42.5895 90.1907 41.5745 90.1883Z" fill="white"/>
<path d="M73.5745 90.1883C72.5594 90.1907 71.7401 91.01 71.7376 92.0251V94.8526H68.9102C67.8976 94.8526 67.0757 95.6745 67.0732 96.6896C67.0757 97.7046 67.8976 98.5263 68.9102 98.5263H71.7376L71.7352 101.352C71.7352 102.364 72.557 103.186 73.572 103.188C74.0808 103.188 74.543 102.98 74.8732 102.65C75.2059 102.318 75.4113 101.858 75.4089 101.352L75.4113 98.5263L78.2364 98.524C78.7451 98.524 79.2025 98.3208 79.5351 97.9882C79.8678 97.6556 80.0732 97.1958 80.0732 96.687C80.0708 95.672 79.249 94.8502 78.2364 94.8502L75.4113 94.8526V92.0251C75.4113 91.0125 74.5895 90.1907 73.5745 90.1883Z" fill="white"/>
<path d="M105.575 90.1883C104.559 90.1907 103.74 91.01 103.738 92.0251V94.8526H100.91C99.8974 94.8526 99.0757 95.6745 99.0732 96.6896C99.0757 97.7046 99.8974 98.5263 100.91 98.5263H103.738L103.735 101.352C103.735 102.364 104.557 103.186 105.572 103.188C106.081 103.188 106.543 102.98 106.873 102.65C107.206 102.318 107.411 101.858 107.409 101.352L107.411 98.5263L110.236 98.524C110.745 98.524 111.202 98.3208 111.535 97.9882C111.868 97.6556 112.073 97.1958 112.073 96.687C112.071 95.672 111.249 94.8502 110.236 94.8502L107.411 94.8526V92.0251C107.411 91.0125 106.59 90.1907 105.575 90.1883Z" fill="white"/>
<path d="M25.5745 111.188C24.5594 111.191 23.7401 112.01 23.7376 113.025V115.853H20.9102C19.8976 115.853 19.0757 116.675 19.0732 117.69C19.0757 118.705 19.8976 119.526 20.9102 119.526H23.7376L23.7352 122.352C23.7352 123.364 24.557 124.186 25.572 124.188C26.0808 124.188 26.543 123.98 26.8732 123.65C27.2059 123.318 27.4113 122.858 27.4089 122.352L27.4113 119.526L30.2364 119.524C30.7451 119.524 31.2025 119.321 31.5351 118.988C31.8678 118.656 32.0732 118.196 32.0732 117.687C32.0708 116.672 31.249 115.85 30.2364 115.85L27.4113 115.853V113.025C27.4113 112.012 26.5895 111.191 25.5745 111.188Z" fill="white"/>
<path d="M57.5745 111.188C56.5594 111.191 55.7401 112.01 55.7376 113.025V115.853H52.9102C51.8976 115.853 51.0757 116.675 51.0732 117.69C51.0757 118.705 51.8976 119.526 52.9102 119.526H55.7376L55.7352 122.352C55.7352 123.364 56.557 124.186 57.572 124.188C58.0808 124.188 58.543 123.98 58.8732 123.65C59.2059 123.318 59.4113 122.858 59.4089 122.352L59.4113 119.526L62.2364 119.524C62.7451 119.524 63.2025 119.321 63.5351 118.988C63.8678 118.656 64.0732 118.196 64.0732 117.687C64.0708 116.672 63.249 115.85 62.2364 115.85L59.4113 115.853V113.025C59.4113 112.012 58.5895 111.191 57.5745 111.188Z" fill="white"/>
<path d="M89.5745 111.188C88.5594 111.191 87.7401 112.01 87.7376 113.025V115.853H84.9102C83.8976 115.853 83.0757 116.675 83.0732 117.69C83.0757 118.705 83.8976 119.526 84.9102 119.526H87.7376L87.7352 122.352C87.7352 123.364 88.557 124.186 89.572 124.188C90.0808 124.188 90.543 123.98 90.8732 123.65C91.2059 123.318 91.4113 122.858 91.4089 122.352L91.4113 119.526L94.2364 119.524C94.7451 119.524 95.2025 119.321 95.5351 118.988C95.8678 118.656 96.0732 118.196 96.0732 117.687C96.0708 116.672 95.249 115.85 94.2364 115.85L91.4113 115.853V113.025C91.4113 112.012 90.5895 111.191 89.5745 111.188Z" fill="white"/>
</svg>
