<svg width="125" height="125" viewBox="0 0 125 125" fill="none" xmlns="http://www.w3.org/2000/svg">
<mask id="mask0_245_413" style="mask-type:alpha" maskUnits="userSpaceOnUse" x="0" y="0" width="125" height="125">
<rect x="0.0732422" y="0.188293" width="124" height="124" fill="#C4C4C4"/>
</mask>
<g mask="url(#mask0_245_413)">
<path d="M62.3783 90.0409C47.2813 90.0409 35.0018 77.7579 35.0018 62.6609C35.0018 47.5674 47.2813 35.2845 62.3783 35.2845C77.4753 35.2845 89.7547 47.5674 89.7547 62.6609C89.7547 77.7579 77.4753 90.0409 62.3783 90.0409ZM62.3783 31.4164C45.1492 31.4164 31.1337 45.4318 31.1337 62.6609C31.1337 79.89 45.1492 93.909 62.3783 93.909C79.604 93.909 93.6228 79.89 93.6228 62.6609C93.6228 45.4318 79.604 31.4164 62.3783 31.4164Z" fill="#F5FCFF"/>
<path d="M62.3782 22.257C63.446 22.257 64.3105 21.3924 64.3105 20.3211V4.87613C64.3105 3.80836 63.446 2.94385 62.3782 2.94385C61.3104 2.94385 60.4424 3.80836 60.4424 4.87613V20.3211C60.4424 21.3924 61.3104 22.257 62.3782 22.257Z" fill="#F5FCFF"/>
<path d="M62.3782 102.623C61.3104 102.623 60.4424 103.488 60.4424 104.559V120.004C60.4424 121.072 61.3104 121.936 62.3782 121.936C63.446 121.936 64.3105 121.072 64.3105 120.004V104.559C64.3105 103.488 63.446 102.623 62.3782 102.623Z" fill="#F5FCFF"/>
<path d="M83.5343 28.2764C83.8512 28.4729 84.2025 28.5659 84.5504 28.5659C85.198 28.5659 85.8317 28.242 86.1968 27.6496L94.3292 14.5159C94.8872 13.6066 94.6082 12.4183 93.7023 11.8534C92.793 11.292 91.6012 11.5709 91.0397 12.4802L82.9074 25.6174C82.346 26.5233 82.625 27.715 83.5343 28.2764Z" fill="#F5FCFF"/>
<path d="M41.2238 96.6035C40.3179 96.0421 39.1227 96.321 38.5613 97.2304L30.4289 110.364C29.8675 111.273 30.1499 112.462 31.0558 113.027C31.3761 113.223 31.724 113.316 32.0719 113.316C32.7195 113.316 33.3532 112.992 33.7184 112.4L41.8507 99.2627C42.4122 98.3568 42.1297 97.165 41.2238 96.6035Z" fill="#F5FCFF"/>
<path d="M99.5237 44.5435C99.8337 44.5435 100.144 44.4714 100.436 44.3163L114.063 37.0173C115.006 36.5144 115.361 35.3435 114.855 34.3997C114.352 33.4628 113.181 33.1046 112.237 33.6109L98.6109 40.9061C97.6671 41.409 97.3124 42.5836 97.8187 43.5239C98.1666 44.1749 98.8348 44.5435 99.5237 44.5435Z" fill="#F5FCFF"/>
<path d="M24.2941 80.6882L10.661 87.9835C9.72068 88.4899 9.36591 89.6576 9.86879 90.6014C10.2201 91.2524 10.8849 91.6243 11.5772 91.6243C11.8838 91.6243 12.1938 91.5485 12.4866 91.3933L26.1162 84.0979C27.06 83.5916 27.4148 82.4206 26.9119 81.4768C26.4056 80.5399 25.2379 80.1851 24.2941 80.688" fill="#F5FCFF"/>
<path d="M119.973 60.4001H119.968L104.509 60.4447C103.441 60.4475 102.577 61.3161 102.58 62.3839C102.583 63.4482 103.448 64.3128 104.513 64.3128H104.518L119.977 64.2683C121.045 64.2655 121.909 63.3968 121.906 62.3291C121.903 61.2613 121.038 60.4001 119.973 60.4001Z" fill="#F5FCFF"/>
<path d="M22.1548 62.6116C22.1521 61.5438 21.2868 60.6827 20.219 60.6827H20.2163L4.75763 60.7276C3.6864 60.7303 2.8253 61.5992 2.82875 62.6669C2.8315 63.7347 3.69674 64.5957 4.76107 64.5957H4.76658L20.2253 64.5508C21.293 64.548 22.1541 63.6794 22.1541 62.6116" fill="#F5FCFF"/>
<path d="M113.875 88.3696L100.304 80.9536C99.3671 80.4404 98.1925 80.7847 97.6793 81.7218C97.1695 82.6586 97.514 83.8367 98.4509 84.3465L112.019 91.7589C112.315 91.9242 112.632 91.9999 112.945 91.9999C113.627 91.9999 114.295 91.6348 114.643 90.9942C115.156 90.0538 114.809 88.8794 113.875 88.3696Z" fill="#F5FCFF"/>
<path d="M26.3141 40.5119L12.7465 33.096C11.8096 32.5828 10.6316 32.9271 10.1218 33.8641C9.60857 34.801 9.95289 35.9791 10.8899 36.4889L24.4576 43.9047C24.7538 44.0667 25.0707 44.1425 25.3841 44.1425C26.0696 44.1425 26.7343 43.7774 27.0857 43.1367C27.5955 42.1998 27.251 41.0218 26.3141 40.512" fill="#F5FCFF"/>
<path d="M86.3715 97.1537C85.8066 96.2513 84.6148 95.9722 83.709 96.5405C82.8031 97.1054 82.5275 98.3006 83.0958 99.2031L91.2902 112.316C91.6553 112.902 92.2856 113.222 92.9297 113.222C93.2811 113.222 93.6324 113.129 93.9527 112.929C94.8586 112.364 95.1342 111.169 94.5693 110.263L86.3715 97.1537Z" fill="#F5FCFF"/>
<path d="M38.3916 27.7082C38.7567 28.2937 39.3905 28.6175 40.0312 28.6175C40.3825 28.6175 40.7373 28.5211 41.0542 28.3247C41.9601 27.7564 42.2356 26.5613 41.6708 25.6588L33.473 12.5457C32.9081 11.6433 31.7163 11.3643 30.807 11.9327C29.9011 12.4976 29.629 13.6928 30.1939 14.5952L38.3916 27.7082Z" fill="#F5FCFF"/>
</g>
</svg>
