<svg width="125" height="126" viewBox="0 0 125 126" fill="none" xmlns="http://www.w3.org/2000/svg">
<path d="M43.1074 72.7953H102.378C102.772 72.7953 103.183 72.7954 103.568 72.8352V72.7953C113.248 72.7953 121.126 64.9746 121.126 55.3613C121.126 45.7447 113.248 37.924 103.568 37.924C102.194 37.924 100.766 38.1031 99.3325 38.455C98.8645 38.571 98.3666 38.485 97.9622 38.2191C97.5611 37.9536 97.2869 37.5321 97.2134 37.0607C95.2546 24.6491 84.6487 15.6433 72.0072 15.6433C57.9183 15.6433 46.4533 27.0259 46.4533 41.0209C46.4533 41.7081 46.5068 42.3885 46.5637 43.059C46.6004 43.5702 46.4132 44.0715 46.0456 44.4267C45.6813 44.7819 45.1665 44.9545 44.6618 44.9014C44.1504 44.8483 43.6323 44.815 43.1075 44.815C35.3394 44.815 29.0186 51.0923 29.0186 58.8035C29.0186 66.518 35.3394 72.7952 43.1075 72.7952L43.1074 72.7953ZM43.0107 41.3926C43.0107 41.2665 43.008 41.1439 43.008 41.0209C43.008 25.1404 56.0206 12.2208 72.0081 12.2208C85.756 12.2208 97.3782 21.5985 100.29 34.7703C101.393 34.591 102.492 34.498 103.568 34.498C115.15 34.498 124.573 43.859 124.573 55.3611C124.573 66.8632 115.151 76.2208 103.559 76.2208H87.8919H43.1083C33.4383 76.2208 25.5732 68.4068 25.5732 58.8035C25.5732 49.2333 33.3848 41.4424 43.0114 41.3926" fill="white"/>
<path d="M21.6029 22.8847C22.6839 22.8847 23.7816 22.9758 24.8859 23.1582C27.8041 9.7632 39.4368 0.220825 53.2012 0.220825C59.1949 0.220825 64.9477 2.051 69.8404 5.50866C70.6168 6.06242 70.8075 7.14637 70.262 7.93313C69.7131 8.72325 68.6389 8.91235 67.8558 8.36196C63.5488 5.31288 58.4821 3.70213 53.2012 3.70213C40.5445 3.70213 29.9258 12.8663 27.9648 25.4881C27.8876 25.9743 27.6134 26.3997 27.2118 26.6699C26.8135 26.94 26.3182 27.0278 25.843 26.9098C24.404 26.5485 22.9817 26.3662 21.6029 26.3662C11.9113 26.3662 4.02341 34.3248 4.02341 44.1035C4.02341 53.2237 10.7969 60.8077 19.7757 61.743C20.7228 61.8443 21.4122 62.7019 21.3152 63.6575C21.2215 64.5523 20.4718 65.2208 19.5983 65.2208C19.5416 65.2208 19.4779 65.2182 19.4211 65.2101C8.6753 64.0891 0.573242 55.016 0.573242 44.1028C0.573242 32.4028 10.0072 22.8842 21.6031 22.8842" fill="white"/>
<path d="M70.4303 89.6529L69.3629 91.2164H78.3043L66.8082 104.132L65.3268 105.797H72.4781L50.2047 121.295L59.3688 107.936L60.442 106.371H52.9781L64.7135 92.7789L66.1422 91.1256H59.4049L81.652 73.2174L70.4303 89.6529Z" fill="white" stroke="white" stroke-width="2"/>
</svg>
